<svg id="Icon_awesome-twitter" data-name="Icon awesome-twitter" xmlns="http://www.w3.org/2000/svg" width="28.319" height="23" viewBox="0 0 28.319 23">
  <path id="Icon_awesome-twitter-2" data-name="Icon awesome-twitter" d="M25.408,9.113c.018.252.018.5.018.755,0,7.673-5.84,16.513-16.513,16.513A16.4,16.4,0,0,1,0,23.775a12.006,12.006,0,0,0,1.4.072,11.623,11.623,0,0,0,7.205-2.48A5.814,5.814,0,0,1,3.18,17.342a7.319,7.319,0,0,0,1.1.09,6.138,6.138,0,0,0,1.527-.2,5.8,5.8,0,0,1-4.654-5.7v-.072a5.845,5.845,0,0,0,2.623.737,5.813,5.813,0,0,1-1.8-7.763,16.5,16.5,0,0,0,11.967,6.073,6.552,6.552,0,0,1-.144-1.33A5.809,5.809,0,0,1,23.844,5.214a11.427,11.427,0,0,0,3.684-1.4,5.788,5.788,0,0,1-2.552,3.2,11.635,11.635,0,0,0,3.342-.9,12.476,12.476,0,0,1-2.911,3Z" transform="translate(0 -3.381)" fill="#b6b6b6"/>
</svg>
