<svg id="youtube" xmlns="http://www.w3.org/2000/svg" width="32.85" height="23" viewBox="0 0 32.85 23">
  <path id="Path_920" data-name="Path 920" d="M32.173,3.6a4.116,4.116,0,0,0-2.9-2.9C26.707,0,16.424,0,16.424,0S6.142,0,3.572.677A4.2,4.2,0,0,0,.676,3.6,43.367,43.367,0,0,0,0,11.5a43.208,43.208,0,0,0,.676,7.9,4.116,4.116,0,0,0,2.9,2.9c2.6.7,12.853.7,12.853.7s10.282,0,12.853-.677a4.116,4.116,0,0,0,2.9-2.9,43.369,43.369,0,0,0,.676-7.9A41.163,41.163,0,0,0,32.173,3.6Zm0,0" transform="translate(0 0)" fill="#b6b6b6"/>
  <path id="Path_921" data-name="Path 921" d="M204.969,116.911l9.839-7.214-9.839-7.213Zm0,0" transform="translate(-191.228 -98.2)" fill="#fff"/>
</svg>
